<?xml version="1.0" encoding="utf-8"?>
<!-- Generator: Adobe Illustrator 27.9.3, SVG Export Plug-In . SVG Version: 9.03 Build 53313)  -->
<svg version="1.1" id="Layer_1" xmlns="http://www.w3.org/2000/svg" xmlns:xlink="http://www.w3.org/1999/xlink" x="0px" y="0px"
	 viewBox="0 0 674 155.3" style="enable-background:new 0 0 674 155.3;" xml:space="preserve">
<style type="text/css">
	.st0{fill:#FFBF00;}
</style>
<g>
	<path class="st0" d="M4.2,75l17.5-7.3c-0.5,2.6-0.8,5.4-0.8,8.1c0,2.3,0.2,4.6,0.6,6.9L4.2,75z"/>
	<path class="st0" d="M28.2,51.2c-2.7,4.2-4.7,8.8-5.9,13.8L9.2,51.2H28.2z"/>
	<path class="st0" d="M29.8,48.9L23,31.2l17.6,7.2C36.3,41.3,32.7,44.8,29.8,48.9z"/>
	<path class="st0" d="M42.8,36.9l0.4-19l13.5,13.3C51.7,32.3,47.1,34.3,42.8,36.9z"/>
	<path class="st0" d="M66.7,30.1c-2.5,0-4.8,0.2-7.2,0.6l7.6-17.4l7.4,17.5C71.9,30.4,69.3,30.1,66.7,30.1z"/>
	<path class="st0" d="M77.2,31.4l13.7-13.2l0.2,19C86.8,34.6,82.2,32.6,77.2,31.4z"/>
	<path class="st0" d="M93.3,38.8l17.7-7l-7.1,17.6C101,45.3,97.4,41.7,93.3,38.8z"/>
	<path class="st0" d="M105.5,51.7l19,0.3l-13.3,13.6C110,60.6,108.1,56,105.5,51.7z"/>
	<path class="st0" d="M112.4,75.8c0-2.6-0.3-5.1-0.7-7.5l17.4,7.5l-17.4,7.5C112.1,80.9,112.4,78.4,112.4,75.8z"/>
	<g>
		<path class="st0" d="M125.3,95.5c-5.9,20.5-20.9,43.7-55.7,45.9S11.2,109.1,8.9,95.5c-1.7-10.2,6,1.1,10.9,8
			c4.5,6.5,37.6,37.1,64,8.3c0,0-16.8,12.3-37.4,5.6c0,0,13.2-10.3,25.9-17.5C89.1,90.7,107.3,89.5,125.3,95.5z"/>
		<path class="st0" d="M41.1,115.1c-9-4.2-21-16-19.6-19c1.5-3,10.4,10.6,24.9,15.8L41.1,115.1z"/>
		<path class="st0" d="M49.3,110c-10.7-4.2-19.3-9.9-18-12c1.3-2.2,12.8,7.7,22.3,8.7L49.3,110z"/>
		<path class="st0" d="M56.6,104.5c-11.2-2.2-16.7-5.5-15.8-6.8c1-1.5,9.6,2.8,19.7,4.2L56.6,104.5z"/>
	</g>
</g>
<g>
	<path d="M152.3,78.8c0-10.9,8.3-18.7,19.5-18.7c5.9,0,11,2.1,14.4,6.1l-4.4,4.1c-2.7-2.9-5.9-4.3-9.7-4.3c-7.5,0-13,5.3-13,12.8
		c0,7.5,5.5,12.8,13,12.8c3.8,0,7.1-1.4,9.7-4.3l4.4,4.2c-3.4,4-8.5,6.1-14.5,6.1C160.6,97.5,152.3,89.7,152.3,78.8z"/>
	<path d="M217,85.2h-21.8c0.8,4.1,4.2,6.7,9,6.7c3.1,0,5.6-1,7.5-3l3.5,4c-2.5,3-6.4,4.5-11.2,4.5c-9.3,0-15.3-6-15.3-14.2
		c0-8.3,6.1-14.2,14.4-14.2c8.1,0,14,5.7,14,14.4C217.1,83.8,217.1,84.6,217,85.2z M195.2,80.9h15.8c-0.5-4-3.6-6.8-7.9-6.8
		C198.9,74.1,195.8,76.8,195.2,80.9z"/>
	<path d="M250.7,81.1V97h-6.5V81.9c0-4.9-2.4-7.3-6.6-7.3c-4.6,0-7.7,2.8-7.7,8.4v14h-6.5V69.2h6.2v3.6c2.1-2.5,5.5-3.9,9.6-3.9
		C245.8,68.9,250.7,72.7,250.7,81.1z"/>
	<path d="M275.7,95.5c-1.6,1.2-3.9,1.9-6.2,1.9c-6.1,0-9.6-3.2-9.6-9.4V74.6h-4.6v-5.2h4.6v-6.3h6.5v6.3h7.4v5.2h-7.4v13.2
		c0,2.7,1.4,4.2,3.8,4.2c1.4,0,2.7-0.4,3.6-1.1L275.7,95.5z"/>
	<path d="M297.1,68.9v6.2c-0.6-0.1-1-0.2-1.5-0.2c-4.9,0-8.1,2.9-8.1,8.6V97H281V69.2h6.2v4.1C289.1,70.4,292.5,68.9,297.1,68.9z"/>
	<path d="M325.7,80.7V97h-6.1v-3.4c-1.6,2.4-4.6,3.7-8.7,3.7c-6.3,0-10.3-3.5-10.3-8.3c0-4.6,3.1-8.3,11.5-8.3h7.2v-0.4
		c0-3.8-2.3-6-6.9-6c-3.1,0-6.3,1-8.4,2.8l-2.5-4.7c3-2.3,7.3-3.4,11.8-3.4C321.1,68.9,325.7,72.7,325.7,80.7z M319.2,88.3v-3.2
		h-6.7c-4.4,0-5.6,1.7-5.6,3.7c0,2.3,2,3.8,5.3,3.8C315.4,92.6,318.1,91.2,319.2,88.3z"/>
	<path d="M334,58.4h6.5V97H334V58.4z"/>
	<path d="M370.8,66.3v11.1h17.6v5.7h-17.6V97H364V60.6h26.6v5.7H370.8z"/>
	<path d="M396.5,58.4h6.5V97h-6.5V58.4z"/>
	<path d="M409.3,83.1c0-8.3,6.2-14.2,14.8-14.2c8.6,0,14.8,5.9,14.8,14.2s-6.2,14.2-14.8,14.2C415.5,97.4,409.3,91.4,409.3,83.1z
		 M432.3,83.1c0-5.3-3.5-8.7-8.3-8.7c-4.7,0-8.2,3.4-8.2,8.7c0,5.3,3.5,8.7,8.2,8.7C428.8,91.8,432.3,88.4,432.3,83.1z"/>
	<path d="M461.2,68.9v6.2c-0.6-0.1-1-0.2-1.5-0.2c-4.9,0-8.1,2.9-8.1,8.6V97h-6.5V69.2h6.2v4.1C453.2,70.4,456.5,68.9,461.2,68.9z"
		/>
	<path d="M465.8,60.8c0-2.2,1.8-3.9,4.2-3.9c2.4,0,4.2,1.6,4.2,3.7c0,2.3-1.7,4.1-4.2,4.1C467.6,64.7,465.8,62.9,465.8,60.8z
		 M466.7,69.2h6.5V97h-6.5V69.2z"/>
	<path d="M508.9,58.4V97h-6.2v-3.6c-2.2,2.7-5.4,4-9.2,4c-8.1,0-14-5.6-14-14.2c0-8.6,6-14.2,14-14.2c3.6,0,6.8,1.2,8.9,3.7V58.4
		H508.9z M502.5,83.1c0-5.3-3.6-8.7-8.3-8.7c-4.7,0-8.3,3.4-8.3,8.7c0,5.3,3.6,8.7,8.3,8.7C498.9,91.8,502.5,88.4,502.5,83.1z"/>
	<path d="M540.7,80.7V97h-6.1v-3.4c-1.6,2.4-4.6,3.7-8.7,3.7c-6.3,0-10.3-3.5-10.3-8.3c0-4.6,3.1-8.3,11.5-8.3h7.2v-0.4
		c0-3.8-2.3-6-6.9-6c-3.1,0-6.3,1-8.4,2.8l-2.5-4.7c3-2.3,7.3-3.4,11.8-3.4C536,68.9,540.7,72.7,540.7,80.7z M534.2,88.3v-3.2h-6.7
		c-4.4,0-5.6,1.7-5.6,3.7c0,2.3,2,3.8,5.3,3.8C530.3,92.6,533.1,91.2,534.2,88.3z"/>
	<path d="M587.6,88.6h-18.2l-3.6,8.4h-7l16.4-36.4h6.7L598.3,97h-7.1L587.6,88.6z M585.3,83.3l-6.9-15.9l-6.8,15.9H585.3z"/>
	<path d="M599.8,78.8c0-10.9,8.3-18.7,19.5-18.7c5.9,0,11,2.1,14.4,6.1l-4.4,4.1c-2.7-2.9-5.9-4.3-9.7-4.3c-7.5,0-13,5.3-13,12.8
		c0,7.5,5.5,12.8,13,12.8c3.8,0,7.1-1.4,9.7-4.3l4.4,4.2c-3.4,4-8.5,6.1-14.5,6.1C608.1,97.5,599.8,89.7,599.8,78.8z"/>
	<path d="M670.7,73.5c0,8-5.9,12.9-15.5,12.9H647V97h-6.8V60.6h15C664.7,60.6,670.7,65.5,670.7,73.5z M663.9,73.5
		c0-4.6-3.1-7.2-9-7.2H647v14.5h7.9C660.8,80.8,663.9,78.1,663.9,73.5z"/>
</g>
</svg>
