<svg xmlns="http://www.w3.org/2000/svg" width="368" height="78" viewBox="0 0 368.48 78.38"><defs><style>.cls-1{fill:#1c355e;}.cls-2{fill:#385cad;}.cls-3{fill:#938ea7;}.cls-4{fill:#595378;}.cls-5{fill:#a5c869;}.cls-6{fill:#71984a;}</style></defs><g id="Layer_2" data-name="Layer 2"><g id="Layer_1-2" data-name="Layer 1"><path class="cls-1" d="M108.22,39.19a1.78,1.78,0,0,1-1.82-1.82V15.66a1.75,1.75,0,0,1,1.82-1.82A1.69,1.69,0,0,1,110,15.66V37.37A1.74,1.74,0,0,1,108.22,39.19Z"/><path class="cls-1" d="M138.58,39.19a1.57,1.57,0,0,1-1.34-.63L123,20.42v17.1a1.69,1.69,0,0,1-3.38,0v-22a1.59,1.59,0,0,1,1.74-1.71,1.67,1.67,0,0,1,1.34.71l14.2,18.06V15.55a1.62,1.62,0,0,1,1.71-1.71,1.59,1.59,0,0,1,1.67,1.71v22A1.61,1.61,0,0,1,138.58,39.19Z"/><path class="cls-1" d="M168.72,39.19a1.57,1.57,0,0,1-1.34-.63L153.15,20.42v17.1a1.69,1.69,0,0,1-3.38,0v-22a1.59,1.59,0,0,1,1.74-1.71,1.66,1.66,0,0,1,1.34.71l14.2,18.06V15.55a1.62,1.62,0,0,1,1.71-1.71,1.59,1.59,0,0,1,1.67,1.71v22A1.61,1.61,0,0,1,168.72,39.19Z"/><path class="cls-1" d="M191.17,39.34c-7.55,0-12.56-5.84-12.56-12.82s5-12.83,12.56-12.83,12.56,5.84,12.56,12.83S198.71,39.34,191.17,39.34Zm0-22.41c-5.76,0-9,4.49-9,9.59s3.24,9.58,9,9.58,9-4.49,9-9.58S196.93,16.93,191.17,16.93Z"/><path class="cls-1" d="M227.48,14.88a1.5,1.5,0,0,1,1.56-1,1.65,1.65,0,0,1,1.71,1.67,2,2,0,0,1-.19.75l-9.4,21.93a1.66,1.66,0,0,1-3,0l-9.4-21.93a2.23,2.23,0,0,1-.19-.75,1.65,1.65,0,0,1,1.71-1.67,1.5,1.5,0,0,1,1.56,1l7.85,18.92Z"/><path class="cls-1" d="M256,36.77a1.87,1.87,0,0,1,.18.75,1.59,1.59,0,0,1-1.67,1.67,1.63,1.63,0,0,1-1.6-1l-2.49-5.43H238.7l-2.49,5.43a1.63,1.63,0,0,1-1.6,1,1.6,1.6,0,0,1-1.67-1.67,1.74,1.74,0,0,1,.19-.75l9.81-21.89a1.75,1.75,0,0,1,3.2,0ZM244.54,19,240,29.56h9.07Z"/><path class="cls-2" d="M284.3,17.78a2,2,0,0,1,.49,1.26,1.5,1.5,0,0,1-1.6,1.57,2,2,0,0,1-1.56-.86,8.38,8.38,0,0,0-6.47-2.82c-6,0-9.18,4.34-9.18,9.59s3.16,9.58,9.18,9.58a8.38,8.38,0,0,0,6.47-2.82,2,2,0,0,1,1.56-.86,1.5,1.5,0,0,1,1.6,1.57,2,2,0,0,1-.49,1.26,11.94,11.94,0,0,1-9.36,4.09c-7.77,0-12.57-5.87-12.57-12.82s4.8-12.83,12.57-12.83A11.94,11.94,0,0,1,284.3,17.78Z"/><path class="cls-2" d="M313.92,36.77a1.89,1.89,0,0,1,.19.75,1.6,1.6,0,0,1-1.67,1.67,1.63,1.63,0,0,1-1.6-1l-2.49-5.43H296.68l-2.49,5.43a1.63,1.63,0,0,1-1.6,1,1.59,1.59,0,0,1-1.67-1.67,1.87,1.87,0,0,1,.18-.75l9.81-21.89a1.75,1.75,0,0,1,3.2,0ZM302.51,19,298,29.56h9.07Z"/><path class="cls-2" d="M323.66,39.19a1.78,1.78,0,0,1-1.82-1.82V16a1.71,1.71,0,0,1,1.82-1.82h10c5.65,0,8.43,3,8.43,7.28A6.5,6.5,0,0,1,337,28.11l4.16,8.52a1.86,1.86,0,0,1,.19.78,1.72,1.72,0,0,1-1.75,1.78,1.57,1.57,0,0,1-1.59-1l-4.72-9.67h-7.88v8.85A1.74,1.74,0,0,1,323.66,39.19Zm1.75-21.78v8h8.95a3.82,3.82,0,0,0,4.17-4,3.85,3.85,0,0,0-4.17-4Z"/><path class="cls-2" d="M366.77,38.89H352.5a1.74,1.74,0,0,1-1.82-1.78V15.92a1.79,1.79,0,0,1,1.82-1.78h13.71a1.64,1.64,0,1,1,0,3.27h-12v7.17H361a1.63,1.63,0,0,1,1.63,1.64A1.6,1.6,0,0,1,361,27.85h-6.77v7.77h12.53a1.62,1.62,0,0,1,1.71,1.64A1.66,1.66,0,0,1,366.77,38.89Z"/><path class="cls-2" d="M117.67,68.21a1,1,0,0,1-1-1V61.64h-7.74v5.52a1,1,0,0,1-1,1,1,1,0,0,1-1.06-1V54.56a1,1,0,1,1,2.07,0V59.7h7.74V54.56a1,1,0,0,1,1-1.05,1,1,0,0,1,1,1.05v12.6A1,1,0,0,1,117.67,68.21Z"/><path class="cls-2" d="M137.31,68H129a1,1,0,0,1-1-1V54.72a1,1,0,0,1,1-1h8a1,1,0,1,1,0,1.9h-6.94v4.16H134a.94.94,0,0,1,.95.95.93.93,0,0,1-.95,1h-3.92v4.5h7.26a1,1,0,0,1,1,1A1,1,0,0,1,137.31,68Z"/><path class="cls-2" d="M158.75,66.81a1,1,0,0,1,.11.43.92.92,0,0,1-1,1,.94.94,0,0,1-.93-.6l-1.44-3.15h-6.77l-1.45,3.15a.94.94,0,0,1-.93.6.93.93,0,0,1-1-1,1.14,1.14,0,0,1,.11-.43l5.69-12.7a1,1,0,0,1,1.86,0Zm-6.62-10.28-2.63,6.1h5.26Z"/><path class="cls-2" d="M167.12,67V54.56a1,1,0,0,1,1.06-1.05,1,1,0,0,1,1,1.05V66.1h6.88a1,1,0,0,1,1,1,1,1,0,0,1-1,1h-7.89A1,1,0,0,1,167.12,67Z"/><path class="cls-2" d="M192.38,55.62h-4V67.16a1,1,0,0,1-1,1,1,1,0,0,1-1.06-1V55.62H182.2a1,1,0,1,1,0-1.94h10.18a1,1,0,1,1,0,1.94Z"/><path class="cls-2" d="M212.09,68.21a1,1,0,0,1-1-1V61.64h-7.74v5.52a1,1,0,0,1-1,1,1,1,0,0,1-1.06-1V54.56a1,1,0,1,1,2.07,0V59.7h7.74V54.56a1,1,0,0,1,1-1.05,1,1,0,0,1,1,1.05v12.6A1,1,0,0,1,212.09,68.21Z"/><path class="cls-3" d="M42.3,7.42c-9.25-.33-18.54,21.85-21.37,30a.51.51,0,0,0,.7-.2c3.75-6,12.33-21,20.37-20.68,8.21.29,18.32,25.19,22.54,35.38a.5.5,0,0,0,.66.31C62.35,40,52.13,7.77,42.3,7.42Z"/><path class="cls-4" d="M42.3,9.5c9.83.35,19.46,31.06,22.9,42.72a.54.54,0,0,0,.37-.64C62.07,32.65,55,.44,42.69,0c-11-.39-19.32,26.66-22,36.76a.55.55,0,0,0,.27.65C24.12,29.75,33.05,9.17,42.3,9.5Z"/><path class="cls-2" d="M79.42,69.8c5.17-7.68-8.66-27.54-13.88-33.8a.51.51,0,0,0-.2.7c3.15,6.37,11.28,21.55,6.79,28.22s-31.07,2.24-41.95.43a.52.52,0,0,0-.62.39C41.26,69.85,73.92,78,79.42,69.8Z"/><path class="cls-1" d="M77.94,68.89c-5.5,8.16-36.65.1-48.38-3.15a.57.57,0,0,0,.36.66c17.92,7,49,18,55.87,7.84C92,65.1,73.38,43.75,66.24,36.11a.55.55,0,0,0-.7-.11C70.36,42.75,83.11,61.21,77.94,68.89Z"/><path class="cls-5" d="M7.26,69.62c3.89,8.4,28.5,6.5,36.62,5.13a.52.52,0,0,0-.49-.54c-7.08-.6-24.28-1.5-27.66-8.8S29.89,37.67,37.07,29.3a.52.52,0,0,0,0-.73C27.74,36,3.12,60.69,7.26,69.62Z"/><path class="cls-6" d="M9.32,68.33C5.19,59.4,28.21,36.92,37.05,28.57a.55.55,0,0,0-.74,0C21,40.22-4.49,61.13.68,72.28c4.64,10,32.51,5.16,42.75,3a.56.56,0,0,0,.45-.54C35.61,75.37,13.22,76.73,9.32,68.33Z"/></g></g></svg>