<?xml version="1.0" encoding="UTF-8"?>
<svg id="Layer_1" data-name="Layer 1" xmlns="http://www.w3.org/2000/svg" xmlns:xlink="http://www.w3.org/1999/xlink" version="1.1" viewBox="0 0 266.5 94.5">
  <defs>
    <style>
      .cls-1 {
        clip-path: url(#clippath);
      }

      .cls-2 {
        fill: none;
      }

      .cls-2, .cls-3, .cls-4, .cls-5 {
        stroke-width: 0px;
      }

      .cls-3 {
        fill: #1a1a1a;
      }

      .cls-4 {
        fill: url(#linear-gradient);
      }

      .cls-6 {
        clip-path: url(#clippath-1);
      }

      .cls-5 {
        fill: url(#linear-gradient-2);
      }
    </style>
    <clipPath id="clippath">
      <path class="cls-2" d="M181.1,20.4l-16.3,15.8-16.2-15.8h-21.8l15.5,14.6c2,1.9,3.6,3.4,4.9,4.6,1.3,1.2,2.4,2.2,3.3,3,.9.8,1.6,1.4,2.1,1.8.6.4,1.1.8,1.5,1.2-.5.4-1,.8-1.6,1.2-.6.5-1.3,1.1-2.2,1.8-.9.8-1.9,1.7-3.3,2.9-1.3,1.2-2.9,2.7-4.9,4.4l-16.5,15.2h19.5l17.8-16.8,17.3,16.8h22.1l-16.2-15.2c-2.1-1.9-3.8-3.5-5.2-4.8s-2.5-2.3-3.4-3.1-1.6-1.5-2.2-1.9-1.1-.8-1.5-1.1c.5-.4,1-.8,1.6-1.3s1.3-1.1,2.2-1.8,1.9-1.6,3.1-2.7c1.2-1.1,2.7-2.4,4.5-4.1l16-14.6h-20.3.2Z"/>
    </clipPath>
    <linearGradient id="linear-gradient" x1="-819.6" y1="476.7" x2="-818.3" y2="476.7" gradientTransform="translate(49873.4 -28888.2) scale(60.7)" gradientUnits="userSpaceOnUse">
      <stop offset="0" stop-color="#dd472f"/>
      <stop offset=".2" stop-color="#e2572b"/>
      <stop offset="1" stop-color="#f49321"/>
    </linearGradient>
    <clipPath id="clippath-1">
      <path class="cls-2" d="M153.9,13.5c0,5.7,4.7,10.4,10.4,10.4s10.4-4.7,10.4-10.4-4.7-10.4-10.4-10.4-10.4,4.7-10.4,10.4"/>
    </clipPath>
    <linearGradient id="linear-gradient-2" x1="-780.7" y1="496.5" x2="-779.5" y2="496.5" gradientTransform="translate(12958.6 -8128.3) scale(16.4)" gradientUnits="userSpaceOnUse">
      <stop offset="0" stop-color="#dd472f"/>
      <stop offset=".2" stop-color="#e2572b"/>
      <stop offset="1" stop-color="#f49321"/>
    </linearGradient>
  </defs>
  <path class="cls-3" d="M56.4,71.9c-1,0-2-.2-3-.5s-2.1-1.1-3.3-2.2l-31.1-27.9v29.8H4.8V29c0-1.7.2-3.1.7-4.3.5-1.2,1.1-2.2,1.9-3,.8-.8,1.7-1.3,2.7-1.7,1-.4,2.1-.5,3.2-.5s1.9.2,2.9.5c1,.3,2.1,1.1,3.4,2.2l31.1,27.9v-29.8h14.3v42c0,1.7-.2,3.1-.7,4.3s-1.1,2.2-1.9,3c-.8.8-1.7,1.4-2.8,1.7-1.1.4-2.1.5-3.3.5"/>
  <polygon class="cls-3" points="131.1 58 121 71.1 72.1 71.1 72.1 20.4 130.9 20.4 120.8 33.5 87.9 33.5 87.9 39.6 128.1 39.6 119.1 51.1 87.9 51.1 87.9 58 131.1 58"/>
  <polygon class="cls-3" points="205.5 20.4 191.4 33.5 219.1 33.5 219.1 71.1 234.8 71.1 234.8 33.5 252.9 33.5 263.1 20.4 205.5 20.4"/>
  <g class="cls-1">
    <rect class="cls-4" x="125.9" y="20.4" width="76.7" height="50.7"/>
  </g>
  <g class="cls-6">
    <rect class="cls-5" x="153.9" y="3.1" width="20.8" height="20.8"/>
  </g>
  <polygon class="cls-3" points="10.6 79.2 10.6 83 6.5 83 6.5 79.2 5 79.2 5 88.8 6.5 88.8 6.5 84.4 10.6 84.4 10.6 88.8 12.1 88.8 12.1 79.2 10.6 79.2"/>
  <polygon class="cls-3" points="19.8 79.2 19.8 88.8 25.1 88.8 25.1 87.5 21.2 87.5 21.2 84.3 25 84.3 25 82.9 21.2 82.9 21.2 80.6 25.1 80.6 25.1 79.2 19.8 79.2"/>
  <path class="cls-3" d="M36,81.9l1.4,3.3h-2.9l1.5-3.3ZM31.2,88.9h1.6l1.1-2.3h4.1l1,2.3h1.6l-4.6-10.2s-4.8,10.2-4.8,10.2Z"/>
  <polygon class="cls-3" points="47.2 79.2 47.2 88.8 51.5 88.8 51.5 87.5 48.6 87.5 48.6 79.2 47.2 79.2"/>
  <polygon class="cls-3" points="56.6 79.2 56.6 80.6 58.8 80.6 58.8 88.8 60.3 88.8 60.3 80.6 62.5 80.6 62.5 79.2 56.6 79.2"/>
  <polygon class="cls-3" points="74.7 79.2 74.7 83 70.6 83 70.6 79.2 69.1 79.2 69.1 88.8 70.6 88.8 70.6 84.4 74.7 84.4 74.7 88.8 76.2 88.8 76.2 79.2 74.7 79.2"/>
  <path class="cls-3" d="M91,79.7v1.7c-.8-.7-1.7-1.1-2.6-1.1s-1.8.4-2.5,1.1-1,1.6-1,2.6.3,1.9,1,2.6,1.5,1,2.5,1,.9,0,1.3-.2c.2,0,.4-.2.6-.3.2,0,.4-.3.7-.5v1.8c-.8.5-1.7.7-2.6.7-1.4,0-2.6-.5-3.5-1.4s-1.5-2.1-1.5-3.5.4-2.3,1.2-3.3c1-1.2,2.3-1.8,3.9-1.8s1.7.2,2.5.7"/>
  <path class="cls-3" d="M102.1,81.9l1.4,3.3h-2.9l1.5-3.3ZM97.3,88.9h1.6l1.1-2.3h4.1l1,2.3h1.6l-4.6-10.2s-4.8,10.2-4.8,10.2Z"/>
  <path class="cls-3" d="M114.7,83.6h.5c1.4,0,2.1-.5,2.1-1.6s-.7-1.5-2-1.5h-.5v3.1h0ZM116.5,84.7l3,4.1h-1.8l-2.8-3.9h-.3v3.9h-1.5v-9.6h1.7c1.3,0,2.2.2,2.8.7.6.5.9,1.2.9,2.1s-.2,1.3-.6,1.8-.9.8-1.5.9"/>
  <polygon class="cls-3" points="126.3 79.2 126.3 88.8 131.6 88.8 131.6 87.5 127.8 87.5 127.8 84.3 131.5 84.3 131.5 82.9 127.8 82.9 127.8 80.6 131.6 80.6 131.6 79.2 126.3 79.2"/>
  <g>
    <path class="cls-3" d="M153.7,80.7l-1.2.7c-.2-.4-.4-.6-.6-.7-.2,0-.5-.2-.8-.2s-.7,0-1,.3c-.3.2-.4.5-.4.8s.3.8,1,1.1l1,.4c.8.3,1.4.7,1.7,1.2.4.5.5,1,.5,1.7s-.3,1.6-.9,2.2c-.6.6-1.3.9-2.2.9s-1.5-.2-2.1-.7c-.5-.5-.9-1.2-1-2.1l1.5-.3c0,.6.2,1,.4,1.2.3.4.7.6,1.3.6s.8-.2,1.1-.5.5-.7.5-1.2v-.5c0-.2-.1-.3-.2-.4-.1,0-.3-.3-.4-.4l-.6-.3-.9-.4c-1.3-.6-2-1.4-2-2.4s.3-1.3.8-1.8c.6-.5,1.2-.7,2.1-.7s2,.5,2.6,1.6"/>
    <path class="cls-3" d="M162,84c0,1.1.4,1.9,1.1,2.6.7.7,1.5,1,2.5,1s1.9-.3,2.6-1c.7-.7,1-1.6,1-2.6s-.3-1.9-1-2.6-1.5-1-2.5-1-1.8.4-2.5,1c-.7.7-1,1.5-1,2.6M160.5,84c0-1.4.5-2.5,1.5-3.5s2.2-1.5,3.6-1.5,2.6.5,3.5,1.5c1,1,1.5,2.2,1.5,3.5s-.5,2.6-1.5,3.5c-1,1-2.2,1.5-3.6,1.5s-2.4-.4-3.4-1.3c-1.1-1-1.6-2.2-1.6-3.7"/>
  </g>
  <polygon class="cls-3" points="177.8 79.2 177.8 88.8 182.1 88.8 182.1 87.5 179.3 87.5 179.3 79.2 177.8 79.2"/>
  <path class="cls-3" d="M190,79.2v5.8c0,.8.1,1.4.4,1.8.4.6,1,.8,1.7.8s1.3-.3,1.7-.8c.3-.4.4-1,.4-1.8v-5.8h1.5v6.2c0,1-.3,1.9-.9,2.5-.7.7-1.6,1.1-2.6,1.1s-1.9-.4-2.6-1.1c-.6-.7-.9-1.5-.9-2.5v-6.2h1.5-.2Z"/>
  <polygon class="cls-3" points="202.3 79.2 202.3 80.6 204.6 80.6 204.6 88.8 206 88.8 206 80.6 208.2 80.6 208.2 79.2 202.3 79.2"/>
  <rect class="cls-3" x="214.9" y="79.2" width="1.5" height="9.6"/>
  <path class="cls-3" d="M225,84c0,1.1.4,1.9,1.1,2.6.7.7,1.5,1,2.5,1s1.9-.3,2.6-1c.7-.7,1-1.6,1-2.6s-.3-1.9-1-2.6-1.5-1-2.5-1-1.8.4-2.5,1c-.7.7-1,1.5-1,2.6M223.5,84c0-1.4.5-2.5,1.5-3.5s2.2-1.5,3.6-1.5,2.5.5,3.5,1.5,1.5,2.2,1.5,3.5-.5,2.6-1.5,3.5c-1,1-2.2,1.5-3.6,1.5s-2.4-.4-3.4-1.3c-1.1-1-1.6-2.2-1.6-3.7"/>
  <polygon class="cls-3" points="240.8 88.9 242.3 88.9 242.3 82.1 249.3 89.4 249.3 79.2 247.8 79.2 247.8 85.9 240.8 78.6 240.8 88.9"/>
  <path class="cls-3" d="M262.4,80.7l-1.2.7c-.2-.4-.4-.6-.6-.7s-.5-.2-.8-.2-.7,0-1,.3c-.3.2-.4.5-.4.8s.3.8,1,1.1l1,.4c.8.3,1.4.7,1.7,1.2.4.5.5,1,.5,1.7s-.3,1.6-.9,2.2-1.3.9-2.2.9-1.5-.2-2.1-.7c-.5-.5-.9-1.2-1-2.1l1.5-.3c0,.6.2,1,.4,1.2.3.4.7.6,1.3.6s.8-.2,1.1-.5c.3-.3.4-.7.4-1.2v-.5c0-.2-.1-.3-.2-.4s-.3-.3-.4-.4c-.2,0-.4-.2-.6-.3l-.9-.4c-1.3-.6-2-1.4-2-2.4s.3-1.3.8-1.8c.6-.5,1.2-.7,2.1-.7s2,.5,2.6,1.6"/>
</svg>