<?xml version="1.0" encoding="utf-8"?>
<!-- Generator: Adobe Illustrator 27.9.3, SVG Export Plug-In . SVG Version: 9.03 Build 53313)  -->
<svg version="1.1" id="Layer_1" xmlns="http://www.w3.org/2000/svg" xmlns:xlink="http://www.w3.org/1999/xlink" x="0px" y="0px"
	 viewBox="0 0 309.7 54.4" style="enable-background:new 0 0 309.7 54.4;" xml:space="preserve">
<style type="text/css">
	.st0{fill:#0099CC;}
	.st1{fill:#231F20;}
</style>
<g>
	<path class="st0" d="M29.1,5.7c5.2,0.1,10.7,2.5,15.2,7.1c1.2,1.2,1.1,1.4-0.5,2.2c-5.8,2.8-11.5,5.6-17.3,8.4
		c-2.7,1.3-5.4,2.5-8.3,3.3c-1.7,0.5-3.6,0.5-5.4,0.4c-2.3-0.2-4.1-2.3-4.3-4.7c-0.5-5.6,2.1-9.7,6.6-12.8
		C18.9,6.9,23.2,5.7,29.1,5.7z"/>
	<path class="st0" d="M53.4,11.9c-1.2,1.5-2.3,3.2-3.7,4.5c-1.3,1.2-1.5,2.2-0.8,3.9c4.2,12-2.5,24.5-15,28.1
		c-0.7,0.2-1.3,0.3-2,0.4c-0.1-0.1-0.1-0.2-0.2-0.4c0.4-0.3,0.8-0.5,1.3-0.8c2.5-1.3,4.7-2.9,6-5.5c2.2-4.5-0.6-8.8-5.6-8.9
		c-3.5-0.1-6.6,1.3-9.8,2.5c-6,2.3-12,4.5-18,6.7C5,42.7,4.5,42.8,4,42.9c-0.1-0.2-0.2-0.3-0.3-0.5c16.4-10.3,32.8-20.7,49.2-31
		C53.1,11.6,53.2,11.7,53.4,11.9z"/>
	<path class="st0" d="M57.1,14.8c-1.8-2.6-3.4-5.1-5.1-7.6c0.1,0,0.2-0.2,0.2-0.2c2.4,0.7,4.6,0.4,6.8-0.7c0.5-0.2,1.1-0.2,1.6-0.3
		c1.1-0.1,1.6,0.2,0.9,1.2c-0.6,0.9-1.2,1.9-2,2.5c-1.1,0.9-1.7,2-1.9,3.4C57.6,13.7,57.3,14.2,57.1,14.8z"/>
</g>
<g>
	<path class="st1" d="M64.1,34l1.4-1.8H76c2.1,0,3.1-0.7,3.1-2.1c0-1.8-1.5-2-4-2h-5.4c-3.4,0-5-1.3-5-3.6c0-2.4,1.6-3.8,5.3-3.8
		h10.8l-1.4,1.8H70c-2,0-3.1,0.7-3.1,2.1c0,1.7,1.4,1.9,4,1.9h5.4c3.3,0,4.9,1.2,4.9,3.6c0,2.6-1.6,3.9-5.3,3.9H64.1z"/>
	<path class="st1" d="M85.1,29.6V34H83v-6.2h9.6c2.5,0,4.6-0.7,4.6-2.7c0-2.1-1.9-2.7-4.6-2.7H83l1.4-1.8h8.9c3.7,0,6,1.7,6,4.6
		c0,2.8-2.3,4.4-6,4.4C93.3,29.6,85.1,29.6,85.1,29.6z"/>
	<path class="st1" d="M102.9,34l1.3-1.8h9.3l-6.2-9.3L99.9,34h-2.6l8.7-12.7c0.3-0.4,0.8-0.8,1.4-0.8s1.1,0.4,1.4,0.8l8.6,12.7
		H102.9z"/>
	<path class="st1" d="M124.1,34c-4.4,0-7.7-2.9-7.7-6.8s3.3-6.6,7.7-6.6h8.5l-1.4,1.8h-7c-2.6,0-5.5,1.5-5.5,4.8s2.9,4.9,6.7,4.9
		h7.3l-1.4,1.8L124.1,34L124.1,34z"/>
	<path class="st1" d="M133.9,34V20.6h14.2l-1.4,1.8h-10.6v4h11.4l-1.2,1.6h-10.2v4.1h12.1l-1.4,1.8h-12.9V34z"/>
	<path class="st1" d="M164.1,34c-4.4,0-7.7-2.9-7.7-6.8s3.3-6.6,7.7-6.6h8.5l-1.4,1.8h-7c-2.6,0-5.5,1.5-5.5,4.8s2.9,4.9,6.7,4.9
		h7.3l-1.4,1.8L164.1,34L164.1,34z"/>
	<path class="st1" d="M182.5,34.2c-6,0-9-2.1-9-6.9s3-6.9,9-6.9s9,2.1,9,6.9S188.5,34.2,182.5,34.2z M182.5,22.2
		c-4.7,0-6.8,1.3-6.8,5.1s2.1,5.1,6.8,5.1s6.8-1.3,6.8-5.1S187.3,22.2,182.5,22.2z"/>
	<path class="st1" d="M196.1,34l1.3-1.8h9.3l-6.2-9.3L193.1,34h-2.6l8.7-12.7c0.3-0.4,0.8-0.8,1.4-0.8c0.6,0,1.1,0.4,1.4,0.8
		l8.6,12.7H196.1z"/>
	<path class="st1" d="M211.2,34l1.4-1.8h10.5c2.1,0,3.1-0.7,3.1-2.1c0-1.8-1.5-2-4-2h-5.4c-3.4,0-5-1.3-5-3.6c0-2.4,1.6-3.8,5.3-3.8
		H228l-1.4,1.8H217c-2,0-3.1,0.7-3.1,2.1c0,1.7,1.4,1.9,4,1.9h5.4c3.3,0,4.9,1.2,4.9,3.6c0,2.6-1.6,3.9-5.3,3.9H211.2z"/>
	<path class="st1" d="M235.3,34V22.4h-7.1l1.5-1.8h15.5l-1.4,1.8h-6.2V34H235.3z"/>
	<path class="st1" d="M258.2,34l1.3-1.8h9.3l-6.2-9.3L255.2,34h-2.6l8.7-12.7c0.3-0.4,0.8-0.8,1.4-0.8s1.1,0.4,1.4,0.8l8.6,12.7
		H258.2z"/>
	<path class="st1" d="M279.4,34c-4.4,0-7.7-2.9-7.7-6.8s3.3-6.6,7.7-6.6h8.5l-1.4,1.8h-7c-2.6,0-5.5,1.5-5.5,4.8s2.9,4.9,6.7,4.9
		h7.3l-1.4,1.8L279.4,34L279.4,34z"/>
	<path class="st1" d="M297.8,34.2c-6,0-9-2.1-9-6.9s3-6.9,9-6.9s9,2.1,9,6.9S303.8,34.2,297.8,34.2z M297.8,22.2
		c-4.7,0-6.8,1.3-6.8,5.1s2.1,5.1,6.8,5.1s6.8-1.3,6.8-5.1S302.6,22.2,297.8,22.2z"/>
</g>
</svg>
