<?xml version="1.0" encoding="utf-8"?>
<!-- Generator: Adobe Illustrator 27.9.3, SVG Export Plug-In . SVG Version: 9.03 Build 53313)  -->
<svg version="1.1" id="Layer_1" xmlns="http://www.w3.org/2000/svg" xmlns:xlink="http://www.w3.org/1999/xlink" x="0px" y="0px"
	 viewBox="0 0 305.4 54.4" style="enable-background:new 0 0 305.4 54.4;" xml:space="preserve">
<style type="text/css">
	.st0{fill:#231F20;}
	.st1{fill:none;stroke:#EB9D2C;stroke-width:3;stroke-miterlimit:10;}
	.st2{fill:#EB9D2C;}
</style>
<g>
	<path class="st0" d="M83.7,19.6l-5.3,16.1h-3.2l-4-11.9l-4,11.9h-3.2l-5.3-16.1h3.1l4,12.2l4.2-12.2h2.8l4.1,12.3l4.1-12.3H83.7z"
		/>
	<path class="st0" d="M98.2,33.2v2.5H86.1V19.6h11.8v2.5h-8.8v4.2h7.8v2.5h-7.8v4.4H98.2z"/>
	<path class="st0" d="M100.2,34l1-2.3c1.3,1,3.3,1.8,5.3,1.8c2.5,0,3.6-0.9,3.6-2.1c0-3.5-9.6-1.2-9.6-7.2c0-2.6,2.1-4.8,6.5-4.8
		c1.9,0,4,0.5,5.4,1.4l-0.9,2.3c-1.4-0.9-3-1.3-4.4-1.3c-2.5,0-3.5,1-3.5,2.2c0,3.4,9.5,1.2,9.5,7.1c0,2.6-2.1,4.8-6.5,4.8
		C104,35.9,101.5,35.1,100.2,34z"/>
	<path class="st0" d="M119,22.1h-5.3v-2.5h13.7v2.5H122v13.6h-3V22.1z"/>
	<path class="st0" d="M138.9,22.1V27h7.8v2.5h-7.8v6.2h-3V19.6h11.8v2.5H138.9z"/>
	<path class="st0" d="M150.6,19.6h3v13.6h8.4v2.5h-11.4V19.6z"/>
	<path class="st0" d="M162.9,27.6c0-4.8,3.7-8.3,8.7-8.3c5,0,8.7,3.5,8.7,8.3c0,4.8-3.7,8.3-8.7,8.3
		C166.6,35.9,162.9,32.4,162.9,27.6z M177.2,27.6c0-3.3-2.4-5.7-5.7-5.7s-5.7,2.4-5.7,5.7c0,3.3,2.4,5.7,5.7,5.7
		S177.2,30.9,177.2,27.6z"/>
	<path class="st0" d="M194,35.7l-3.3-4.7c-0.2,0-0.4,0-0.6,0h-3.6v4.7h-3V19.6h6.6c4.2,0,6.9,2.2,6.9,5.7c0,2.4-1.2,4.2-3.4,5.1
		l3.7,5.3H194z M189.9,22.1h-3.5v6.4h3.5c2.6,0,4-1.2,4-3.2S192.5,22.1,189.9,22.1z"/>
	<path class="st0" d="M200.2,19.6h3v16.1h-3V19.6z"/>
	<path class="st0" d="M207.6,19.6h7c5.2,0,8.8,3.2,8.8,8c0,4.8-3.6,8-8.8,8h-7V19.6z M214.5,33.1c3.6,0,5.9-2.2,5.9-5.5
		c0-3.3-2.3-5.5-5.9-5.5h-3.9v11H214.5z"/>
	<path class="st0" d="M236.8,32h-8l-1.6,3.7h-3.1l7.2-16.1h2.9l7.3,16.1h-3.1L236.8,32z M235.8,29.6l-3-7l-3,7H235.8z"/>
	<path class="st0" d="M260.4,32h-8l-1.6,3.7h-3.1l7.2-16.1h2.9l7.3,16.1H262L260.4,32z M259.4,29.6l-3-7l-3,7H259.4z"/>
	<path class="st0" d="M265.8,27.6c0-4.8,3.7-8.3,8.6-8.3c2.6,0,4.9,0.9,6.4,2.7l-1.9,1.8c-1.2-1.3-2.6-1.9-4.3-1.9
		c-3.3,0-5.7,2.3-5.7,5.7c0,3.3,2.4,5.7,5.7,5.7c1.7,0,3.1-0.6,4.3-1.9l1.9,1.8c-1.5,1.7-3.7,2.7-6.4,2.7
		C269.5,35.9,265.8,32.4,265.8,27.6z"/>
	<path class="st0" d="M282.2,27.6c0-4.8,3.7-8.3,8.7-8.3c5,0,8.7,3.5,8.7,8.3c0,4.8-3.7,8.3-8.7,8.3
		C285.8,35.9,282.2,32.4,282.2,27.6z M296.5,27.6c0-3.3-2.4-5.7-5.7-5.7s-5.7,2.4-5.7,5.7c0,3.3,2.4,5.7,5.7,5.7
		S296.5,30.9,296.5,27.6z"/>
</g>
<circle class="st1" cx="27.1" cy="27.6" r="21.3"/>
<polygon class="st2" points="14.3,21.3 18.3,21.3 20.1,29.2 20.9,29.2 23.2,21.3 26.8,21.3 28.7,29.3 29.6,29.2 31.4,21.3 
	39.8,21.3 39.2,24 34.3,24 33.6,27.5 40,27.5 39.3,30.1 32.5,30.2 31.6,33.9 27.3,33.9 25.5,26 24.5,26 22.5,33.9 18.3,33.9 "/>
</svg>
